<svg width="697" height="203" xmlns="http://www.w3.org/2000/svg" xmlns:xlink="http://www.w3.org/1999/xlink" xml:space="preserve" overflow="hidden"><defs><clipPath id="clip0"><rect x="132" y="377" width="697" height="203"/></clipPath></defs><g clip-path="url(#clip0)" transform="translate(-132 -377)"><path d="M631.614 0.707383 461.408 0.707383C440.525 0.707383 430.091 11.3039 430.091 32.5128L430.091 69.3667C430.091 90.5699 440.525 101.172 461.408 101.172L524.297 101.172C529.904 101.172 532.708 104.201 532.708 110.26L532.708 131.968C532.708 138.363 529.904 141.56 524.297 141.56L408.977 141.56C404.435 153.65 392.689 162.259 378.906 162.259L547.728 162.259C568.598 162.259 579.046 151.826 579.046 130.959L579.046 87.5411C579.046 66.6735 568.356 56.2409 546.964 56.2409L484.825 56.2409C479.233 56.2409 476.43 53.3792 476.43 47.6583L476.43 30.4932C476.43 24.4341 479.488 21.4095 485.59 21.4095L598.23 21.4095 598.23 162.259 646.098 162.259 646.098 21.4095 665.707 21.4095 696.26 0.707383 631.614 0.707383Z" fill="#C48E49" transform="matrix(1 0 0 1.00056 132.37 377)"/><path d="M378.906 0.707383 262.928 0.707383C250.102 0.707383 239.705 11.1046 239.705 23.93L239.705 136.681C239.705 138.12 239.832 139.531 240.062 140.906L220.599 140.906 220.599 0 172.732 0 172.732 0.0531128 147.398 0.0531128 100.036 117.906 53.4378 0.0531128 0 0.0531128 0 162.259 28.1047 162.259 28.1045 23.37 83.2411 162.259 116.582 162.259 172.732 23.37 172.732 162.259 378.906 162.259C392.689 162.259 404.435 153.65 408.977 141.56 410.276 138.103 410.988 134.361 410.988 130.454L410.988 32.5128C410.988 14.9392 396.632 0.707383 378.906 0.707383ZM354.47 141.56 306.077 141.56C300.315 141.56 297.427 138.7 297.427 132.977L297.427 29.9878C297.427 24.2657 300.315 21.4095 306.077 21.4095L354.47 21.4095C360.232 21.4095 363.12 24.2657 363.12 29.9878L363.12 132.977C363.12 138.7 360.232 141.56 354.47 141.56Z" fill="#2467AE" transform="matrix(1 0 0 1.00056 132.37 377)"/><path d="M14.5758 202.278C12.5861 202.683 10.7987 202.886 9.21529 202.886 7.63092 202.886 6.35077 202.669 5.37533 202.234 4.39989 201.8 3.6464 201.124 3.11536 200.206 2.58383 199.288 2.21682 198.235 2.01434 197.048 1.81137 195.859 1.70964 194.376 1.70964 192.599 1.70964 190.822 1.81137 189.33 2.01434 188.123 2.21682 186.915 2.58383 185.848 3.11536 184.92 3.6464 183.993 4.39502 183.317 5.36122 182.892 6.32693 182.466 7.58225 182.254 9.12817 182.254 10.6736 182.254 12.4897 182.466 14.5758 182.892L14.4892 184.774C12.5373 184.427 10.7987 184.254 9.27322 184.254 7.14759 184.254 5.74235 184.887 5.05701 186.151 4.37069 187.417 4.02802 189.576 4.02802 192.627 4.02802 194.155 4.09081 195.381 4.21638 196.309 4.34197 197.235 4.58826 198.071 4.95527 198.814 5.32227 199.559 5.85818 200.09 6.56348 200.409 7.26878 200.727 8.30215 200.887 9.66407 200.887 11.026 200.887 12.6347 200.713 14.4892 200.365L14.5758 202.278Z" fill="#1D1D1B" transform="matrix(1 0 0 1.00056 132.37 377)"/><path d="M18.2269 202.596 18.2269 182.543 30.4268 182.543 30.4268 184.515 20.4582 184.515 20.4582 191.44 28.6882 191.44 28.6882 193.381 20.4582 193.381 20.4582 200.626 30.4268 200.626 30.4268 202.596 18.2269 202.596Z" fill="#1D1D1B" transform="matrix(1 0 0 1.00056 132.37 377)"/><path d="M34.2512 202.596 34.2512 182.543 38.4241 182.543 46.103 200.626 46.712 200.626 46.712 182.543 48.914 182.543 48.914 202.596 44.8282 202.596 37.0335 184.515 36.4824 184.515 36.4824 202.596 34.2512 202.596Z" fill="#1D1D1B" transform="matrix(1 0 0 1.00056 132.37 377)"/><path d="M51.7537 184.543 51.7537 182.543 66.2427 182.543 66.2427 184.543 60.1283 184.543 60.1283 202.596 57.9262 202.596 57.9262 184.543 51.7537 184.543Z" fill="#1D1D1B" transform="matrix(1 0 0 1.00056 132.37 377)"/><path d="M71.3132 194.917 71.3132 202.596 69.082 202.596 69.082 182.543 76.5005 182.543C78.6251 182.543 80.2241 183.036 81.2964 184.023 82.3682 185.007 82.9046 186.543 82.9046 188.629 82.9046 191.72 81.6775 193.661 79.2243 194.454L83.0784 202.596 80.6155 202.596 76.9931 194.917 71.3132 194.917ZM76.5292 192.947C79.2535 192.947 80.6155 191.542 80.6155 188.731 80.6155 185.92 79.2433 184.515 76.5005 184.515L71.3132 184.515 71.3132 192.947 76.5292 192.947Z" fill="#1D1D1B" transform="matrix(1 0 0 1.00056 132.37 377)"/><path d="M101.972 192.715C101.972 196.289 101.402 198.878 100.262 200.481 99.1217 202.085 97.05 202.886 94.0464 202.886 91.0421 202.886 88.97 202.065 87.8305 200.423 86.6906 198.781 86.1206 196.197 86.1206 192.671 86.1206 189.146 86.7003 186.528 87.8592 184.818 89.0187 183.109 91.0762 182.254 94.0317 182.254 96.9872 182.254 99.0496 183.104 100.218 184.804 101.387 186.505 101.972 189.14 101.972 192.715ZM88.4103 192.657C88.4103 195.594 88.7963 197.704 89.5692 198.988 90.3417 200.273 91.834 200.916 94.0464 200.916 96.2581 200.916 97.7456 200.288 98.5088 199.032 99.2716 197.776 99.6532 195.671 99.6532 192.715 99.6532 189.758 99.2575 187.605 98.4655 186.254 97.673 184.901 96.1904 184.225 94.0172 184.225 91.8438 184.225 90.3661 184.897 89.5838 186.239 88.8011 187.581 88.4102 189.721 88.4102 192.657Z" fill="#1D1D1B" transform="matrix(1 0 0 1.00056 132.37 377)"/><path d="M112.432 202.596 112.432 182.543 116.605 182.543 124.284 200.626 124.893 200.626 124.893 182.543 127.095 182.543 127.095 202.596 123.009 202.596 115.214 184.515 114.663 184.515 114.663 202.596 112.432 202.596Z" fill="#1D1D1B" transform="matrix(1 0 0 1.00056 132.37 377)"/><path d="M130.253 202.596 135.759 182.543 140.627 182.543 146.133 202.596 143.931 202.596 142.481 197.439 133.904 197.439 132.455 202.596 130.253 202.596ZM137.439 184.456 134.397 195.44 141.989 195.44 138.946 184.456 137.439 184.456Z" fill="#1D1D1B" transform="matrix(1 0 0 1.00056 132.37 377)"/><path d="M148.075 184.515 148.075 182.543 161.115 182.543 161.115 185.151 150.625 200.047 150.625 200.626 161.115 200.626 161.115 202.626 148.075 202.626 148.075 200.047 158.535 185.151 158.535 184.515 148.075 184.515Z" fill="#1D1D1B" transform="matrix(1 0 0 1.00056 132.37 377)"/><path d="M164.823 202.596 164.823 182.543 167.055 182.543 167.055 202.596 164.823 202.596Z" fill="#1D1D1B" transform="matrix(1 0 0 1.00056 132.37 377)"/><path d="M186.991 192.715C186.991 196.289 186.421 198.878 185.282 200.481 184.141 202.085 182.07 202.886 179.066 202.886 176.062 202.886 173.989 202.065 172.85 200.423 171.71 198.781 171.14 196.197 171.14 192.671 171.14 189.146 171.719 186.528 172.879 184.818 174.038 183.109 176.095 182.254 179.051 182.254 182.007 182.254 184.069 183.104 185.238 184.804 186.406 186.505 186.991 189.14 186.991 192.715ZM173.43 192.657C173.43 195.594 173.816 197.704 174.588 198.988 175.361 200.273 176.853 200.916 179.066 200.916 181.277 200.916 182.766 200.288 183.528 199.032 184.291 197.776 184.673 195.671 184.673 192.715 184.673 189.758 184.277 187.605 183.485 186.254 182.693 184.901 181.209 184.225 179.036 184.225 176.863 184.225 175.386 184.897 174.603 186.239 173.821 187.581 173.43 189.721 173.43 192.657Z" fill="#1D1D1B" transform="matrix(1 0 0 1.00056 132.37 377)"/><path d="M191.076 202.596 191.076 182.543 195.249 182.543 202.928 200.626 203.537 200.626 203.537 182.543 205.739 182.543 205.739 202.596 201.653 202.596 193.859 184.515 193.307 184.515 193.307 202.596 191.076 202.596Z" fill="#1D1D1B" transform="matrix(1 0 0 1.00056 132.37 377)"/><path d="M208.897 202.596 214.403 182.543 219.272 182.543 224.777 202.596 222.575 202.596 221.126 197.439 212.549 197.439 211.099 202.596 208.897 202.596ZM216.084 184.456 213.041 195.44 220.633 195.44 217.591 184.456 216.084 184.456Z" fill="#1D1D1B" transform="matrix(1 0 0 1.00056 132.37 377)"/><path d="M238.977 202.596 227.935 202.596 227.935 182.543 230.167 182.543 230.167 200.597 238.977 200.597 238.977 202.596Z" fill="#1D1D1B" transform="matrix(1 0 0 1.00056 132.37 377)"/><path d="M241.816 202.596 241.816 182.543 254.016 182.543 254.016 184.515 244.048 184.515 244.048 191.44 252.277 191.44 252.277 193.381 244.048 193.381 244.048 200.626 254.016 200.626 254.016 202.596 241.816 202.596Z" fill="#1D1D1B" transform="matrix(1 0 0 1.00056 132.37 377)"/><path d="M271.547 195.844 266.446 195.844 266.446 202.596 264.215 202.596 264.215 182.543 271.547 182.543C273.729 182.543 275.343 183.075 276.386 184.138 277.429 185.2 277.951 186.823 277.951 189.006 277.951 193.565 275.815 195.844 271.547 195.844ZM266.446 193.874 271.518 193.874C274.28 193.874 275.661 192.251 275.661 189.006 275.661 187.461 275.333 186.325 274.676 185.602 274.019 184.877 272.966 184.515 271.518 184.515L266.446 184.515 266.446 193.874Z" fill="#1D1D1B" transform="matrix(1 0 0 1.00056 132.37 377)"/><path d="M281.398 202.596 281.398 182.543 293.599 182.543 293.599 184.515 283.63 184.515 283.63 191.44 291.86 191.44 291.86 193.381 283.63 193.381 283.63 200.626 293.599 200.626 293.599 202.596 281.398 202.596Z" fill="#1D1D1B" transform="matrix(1 0 0 1.00056 132.37 377)"/><path d="M299.654 194.917 299.654 202.596 297.423 202.596 297.423 182.543 304.841 182.543C306.966 182.543 308.565 183.036 309.637 184.023 310.71 185.007 311.246 186.543 311.246 188.629 311.246 191.72 310.019 193.661 307.566 194.454L311.419 202.596 308.956 202.596 305.335 194.917 299.654 194.917ZM304.87 192.947C307.594 192.947 308.956 191.542 308.956 188.731 308.956 185.92 307.584 184.515 304.841 184.515L299.654 184.515 299.654 192.947 304.87 192.947Z" fill="#1D1D1B" transform="matrix(1 0 0 1.00056 132.37 377)"/><path d="M332.688 202.596 321.648 202.596 321.648 182.543 323.879 182.543 323.879 200.597 332.688 200.597 332.688 202.596Z" fill="#1D1D1B" transform="matrix(1 0 0 1.00056 132.37 377)"/><path d="M333.761 202.596 339.267 182.543 344.134 182.543 349.641 202.596 347.438 202.596 345.99 197.439 337.412 197.439 335.963 202.596 333.761 202.596ZM340.947 184.456 337.904 195.44 345.497 195.44 342.454 184.456 340.947 184.456Z" fill="#1D1D1B" transform="matrix(1 0 0 1.00056 132.37 377)"/><path d="M359.173 202.596 359.173 182.543 363.201 182.543 368.881 199.496 374.561 182.543 378.589 182.543 378.589 202.596 376.358 202.596 376.358 184.92 375.951 184.92 370.128 201.872 367.635 201.872 361.811 184.92 361.405 184.92 361.405 202.596 359.173 202.596Z" fill="#1D1D1B" transform="matrix(1 0 0 1.00056 132.37 377)"/><path d="M398.554 192.715C398.554 196.289 397.985 198.878 396.844 200.481 395.705 202.085 393.633 202.886 390.629 202.886 387.624 202.886 385.553 202.065 384.414 200.423 383.273 198.781 382.704 196.197 382.704 192.671 382.704 189.146 383.283 186.528 384.442 184.818 385.601 183.109 387.659 182.254 390.614 182.254 393.57 182.254 395.632 183.104 396.801 184.804 397.97 186.505 398.554 189.14 398.554 192.715ZM384.993 192.657C384.993 195.594 385.379 197.704 386.152 198.988 386.924 200.273 388.416 200.916 390.629 200.916 392.841 200.916 394.328 200.288 395.092 199.032 395.855 197.776 396.236 195.671 396.236 192.715 396.236 189.758 395.841 187.605 395.048 186.254 394.256 184.901 392.773 184.225 390.6 184.225 388.427 184.225 386.95 184.897 386.167 186.239 385.383 187.581 384.993 189.721 384.993 192.657Z" fill="#1D1D1B" transform="matrix(1 0 0 1.00056 132.37 377)"/><path d="M402.639 182.543 409.913 182.543C411.902 182.543 413.394 182.954 414.39 183.775 415.384 184.597 415.882 185.887 415.882 187.643 415.882 188.9 415.664 189.881 415.23 190.586 414.795 191.291 414.153 191.846 413.303 192.251 415.428 192.986 416.491 194.56 416.491 196.975 416.491 198.983 415.959 200.423 414.897 201.292 413.834 202.161 412.298 202.596 410.29 202.596L402.639 202.596 402.639 182.543ZM409.826 184.515 404.87 184.515 404.87 191.44 410.029 191.44C411.264 191.44 412.167 191.146 412.738 190.556 413.308 189.967 413.593 189.079 413.593 187.889 413.593 186.702 413.289 185.843 412.68 185.311 412.071 184.78 411.12 184.515 409.826 184.515ZM410.057 193.381 404.87 193.381 404.87 200.626 410.202 200.626C411.516 200.626 412.515 200.35 413.202 199.801 413.887 199.25 414.231 198.279 414.231 196.888 414.231 196.153 414.09 195.535 413.81 195.033 413.53 194.531 413.158 194.174 412.694 193.961 411.844 193.575 410.965 193.381 410.057 193.381Z" fill="#1D1D1B" transform="matrix(1 0 0 1.00056 132.37 377)"/><path d="M420.489 202.596 420.489 182.543 422.72 182.543 422.72 202.596 420.489 202.596Z" fill="#1D1D1B" transform="matrix(1 0 0 1.00056 132.37 377)"/><path d="M438.659 202.596 427.618 202.596 427.618 182.543 429.849 182.543 429.849 200.597 438.659 200.597 438.659 202.596Z" fill="#1D1D1B" transform="matrix(1 0 0 1.00056 132.37 377)"/><path d="M441.498 202.596 441.498 182.543 443.73 182.543 443.73 202.596 441.498 202.596Z" fill="#1D1D1B" transform="matrix(1 0 0 1.00056 132.37 377)"/><path d="M446.54 184.543 446.54 182.543 461.028 182.543 461.028 184.543 454.915 184.543 454.915 202.596 452.711 202.596 452.711 184.543 446.54 184.543Z" fill="#1D1D1B" transform="matrix(1 0 0 1.00056 132.37 377)"/><path d="M460.738 202.596 466.245 182.543 471.113 182.543 476.619 202.596 474.416 202.596 472.968 197.439 464.39 197.439 462.941 202.596 460.738 202.596ZM465.52 175.618 471.779 178.516 471.113 180.052 464.767 177.531 465.52 175.618ZM467.926 184.456 464.882 195.44 472.475 195.44 469.432 184.456 467.926 184.456Z" fill="#1D1D1B" transform="matrix(1 0 0 1.00056 132.37 377)"/><path d="M491.687 184.195C488.789 184.195 487.34 185.288 487.34 187.471 487.34 188.687 487.673 189.523 488.34 189.977 489.006 190.43 490.358 190.885 492.397 191.339 494.434 191.792 495.879 192.381 496.729 193.106 497.578 193.831 498.004 195.024 498.004 196.686 498.004 200.8 495.869 202.857 491.599 202.857 490.189 202.857 488.422 202.693 486.297 202.365L485.253 202.219 485.485 200.365C488.112 200.713 490.112 200.887 491.483 200.887 494.342 200.887 495.773 199.545 495.773 196.859 495.773 195.778 495.458 194.999 494.83 194.526 494.202 194.053 493.03 193.652 491.31 193.324 489.05 192.841 487.445 192.218 486.499 191.455 485.553 190.692 485.08 189.412 485.08 187.615 485.08 184.023 487.233 182.225 491.542 182.225 492.952 182.225 494.642 182.37 496.612 182.66L497.598 182.804 497.396 184.688C494.709 184.359 492.806 184.195 491.687 184.195Z" fill="#1D1D1B" transform="matrix(1 0 0 1.00056 132.37 377)"/><path d="M516.896 192.715C516.896 196.289 516.327 198.878 515.187 200.481 514.047 202.085 511.975 202.886 508.971 202.886 505.967 202.886 503.895 202.065 502.756 200.423 501.616 198.781 501.046 196.197 501.046 192.671 501.046 189.146 501.625 186.528 502.785 184.818 503.943 183.109 506.001 182.254 508.956 182.254 511.912 182.254 513.974 183.104 515.143 184.804 516.312 186.505 516.896 189.14 516.896 192.715ZM503.335 192.657C503.335 195.594 503.721 197.704 504.494 198.988 505.266 200.273 506.758 200.916 508.971 200.916 511.183 200.916 512.671 200.288 513.433 199.032 514.197 197.776 514.579 195.671 514.579 192.715 514.579 189.758 514.182 187.605 513.39 186.254 512.598 184.901 511.116 184.225 508.942 184.225 506.769 184.225 505.292 184.897 504.508 186.239 503.726 187.581 503.335 189.721 503.335 192.657Z" fill="#1D1D1B" transform="matrix(1 0 0 1.00056 132.37 377)"/><path d="M526.517 184.195C523.619 184.195 522.171 185.288 522.171 187.471 522.171 188.687 522.504 189.523 523.171 189.977 523.837 190.43 525.188 190.885 527.227 191.339 529.264 191.792 530.71 192.381 531.559 193.106 532.41 193.831 532.834 195.024 532.834 196.686 532.834 200.8 530.7 202.857 526.43 202.857 525.021 202.857 523.252 202.693 521.127 202.365L520.083 202.219 520.317 200.365C522.943 200.713 524.942 200.887 526.314 200.887 529.174 200.887 530.603 199.545 530.603 196.859 530.603 195.778 530.289 194.999 529.661 194.526 529.033 194.053 527.86 193.652 526.141 193.324 523.88 192.841 522.276 192.218 521.329 191.455 520.383 190.692 519.911 189.412 519.911 187.615 519.911 184.023 522.064 182.225 526.373 182.225 527.782 182.225 529.473 182.37 531.444 182.66L532.428 182.804 532.226 184.688C529.541 184.359 527.638 184.195 526.517 184.195Z" fill="#1D1D1B" transform="matrix(1 0 0 1.00056 132.37 377)"/><path d="M534.602 184.543 534.602 182.543 549.09 182.543 549.09 184.543 542.976 184.543 542.976 202.596 540.773 202.596 540.773 184.543 534.602 184.543Z" fill="#1D1D1B" transform="matrix(1 0 0 1.00056 132.37 377)"/><path d="M551.93 202.596 551.93 182.543 564.13 182.543 564.13 184.515 554.161 184.515 554.161 191.44 562.391 191.44 562.391 193.381 554.161 193.381 554.161 200.626 564.13 200.626 564.13 202.596 551.93 202.596Z" fill="#1D1D1B" transform="matrix(1 0 0 1.00056 132.37 377)"/><path d="M567.954 202.596 567.954 182.543 572.126 182.543 579.805 200.626 580.414 200.626 580.414 182.543 582.616 182.543 582.616 202.596 578.53 202.596 570.736 184.515 570.185 184.515 570.185 202.596 567.954 202.596Z" fill="#1D1D1B" transform="matrix(1 0 0 1.00056 132.37 377)"/><path d="M587.543 202.596 587.543 182.543 589.775 182.543 589.775 202.596 587.543 202.596Z" fill="#1D1D1B" transform="matrix(1 0 0 1.00056 132.37 377)"/><path d="M594.672 182.543 601.946 182.543C603.934 182.543 605.427 182.954 606.422 183.775 607.416 184.597 607.915 185.887 607.915 187.643 607.915 188.9 607.696 189.881 607.262 190.586 606.827 191.291 606.184 191.846 605.335 192.251 607.46 192.986 608.523 194.56 608.523 196.975 608.523 198.983 607.992 200.423 606.929 201.292 605.866 202.161 604.33 202.596 602.321 202.596L594.672 202.596 594.672 182.543ZM601.858 184.515 596.902 184.515 596.902 191.44 602.061 191.44C603.296 191.44 604.199 191.146 604.77 190.556 605.34 189.967 605.625 189.079 605.625 187.889 605.625 186.702 605.32 185.843 604.712 185.311 604.103 184.78 603.152 184.515 601.858 184.515ZM602.089 193.381 596.902 193.381 596.902 200.626 602.235 200.626C603.549 200.626 604.547 200.35 605.233 199.801 605.919 199.25 606.263 198.279 606.263 196.888 606.263 196.153 606.122 195.535 605.842 195.033 605.561 194.531 605.189 194.174 604.727 193.961 603.877 193.575 602.997 193.381 602.089 193.381Z" fill="#1D1D1B" transform="matrix(1 0 0 1.00056 132.37 377)"/><path d="M612.521 202.596 612.521 182.543 614.752 182.543 614.752 202.596 612.521 202.596Z" fill="#1D1D1B" transform="matrix(1 0 0 1.00056 132.37 377)"/><path d="M630.689 202.596 619.649 202.596 619.649 182.543 621.881 182.543 621.881 200.597 630.689 200.597 630.689 202.596Z" fill="#1D1D1B" transform="matrix(1 0 0 1.00056 132.37 377)"/><path d="M633.529 202.596 633.529 182.543 645.729 182.543 645.729 184.515 635.76 184.515 635.76 191.44 643.99 191.44 643.99 193.381 635.76 193.381 635.76 200.626 645.729 200.626 645.729 202.596 633.529 202.596Z" fill="#1D1D1B" transform="matrix(1 0 0 1.00056 132.37 377)"/></g></svg>